<svg width="1440" height="1299" viewBox="0 0 1440 1299" fill="none" xmlns="http://www.w3.org/2000/svg">
<g clip-path="url(#clip0_0_96)">
<rect width="1440" height="1299" fill="white"/>
<g opacity="0.1">
<mask id="mask0_0_96" style="mask-type:luminance" maskUnits="userSpaceOnUse" x="-1" y="-416" width="1441" height="2160">
<path d="M1440 1744L1440 -416L-0.00012207 -416L-0.000216487 1744L1440 1744Z" fill="white"/>
</mask>
<g mask="url(#mask0_0_96)">
<path d="M1440.14 1744.23L1440.14 -416.188L-0.143433 -416.188L-0.143527 1744.23L1440.14 1744.23Z" fill="#145FAC"/>
<path d="M310.81 -416.202L166.378 -416.202L166.378 1744.22L310.81 1744.22L310.81 -416.202ZM952.676 586.701L808.258 586.701L808.258 1744.22L952.676 1744.22L952.676 586.701ZM1273.59 586.701L1129.23 586.701L1129.23 1744.22L1273.59 1744.22L1273.59 586.701ZM631.757 175.523L968.717 175.523L968.717 586.701L1113.19 586.701L1113.19 175.523L1440.14 175.523L1440.14 -5.00967L1113.19 -5.00969L1113.19 -416.202L968.703 -416.202L968.703 -5.00969L631.743 -5.00971L631.743 -416.202L487.325 -416.202L487.325 1744.22L631.757 1744.22L631.757 175.523Z" fill="white"/>
</g>
</g>
</g>
<defs>
<clipPath id="clip0_0_96">
<rect width="1440" height="1299" fill="white"/>
</clipPath>
</defs>
</svg>
