<svg width="56" height="57" viewBox="0 0 56 57" fill="none" xmlns="http://www.w3.org/2000/svg">
<rect x="-0.000244141" y="0.143066" width="56.0002" height="56" rx="28" fill="#085393"/>
<path fill-rule="evenodd" clip-rule="evenodd" d="M19.4113 25.7543C17.968 25.7543 17.6667 26.0292 17.6667 27.3469V29.7357C17.6667 31.0533 17.968 31.3283 19.4113 31.3283H22.9005V40.8839C22.9005 42.2015 23.2017 42.4765 24.6451 42.4765H28.1343C29.5776 42.4765 29.8789 42.2015 29.8789 40.8839V31.3283H33.7967C34.8914 31.3283 35.1734 31.1341 35.4742 30.1733L36.2218 27.7844C36.737 26.1384 36.4196 25.7543 34.5444 25.7543H29.8789V21.7728C29.8789 20.8932 30.6599 20.1802 31.6235 20.1802H36.5888C38.0322 20.1802 38.3334 19.9052 38.3334 18.5876V15.4024C38.3334 14.0848 38.0322 13.8098 36.5888 13.8098H31.6235C26.8059 13.8098 22.9005 17.375 22.9005 21.7728V25.7543H19.4113Z" fill="white"/>
</svg>
