<svg width="63" height="63" viewBox="0 0 63 63" fill="none" xmlns="http://www.w3.org/2000/svg">
<path d="M55.9483 50.477C53.4332 49.1979 50.7999 48.1712 48.0862 47.4118C49.3418 42.5888 50.0133 37.6297 50.0862 32.6433H62.5C62.2111 39.1326 59.9202 45.3682 55.9483 50.477ZM47.8793 14.4612C50.5161 13.7303 53.0791 12.7507 55.5345 11.5354C59.4319 16.3633 61.8098 22.2589 62.3621 28.4635H50.0172C49.8496 23.7276 49.1321 19.028 47.8793 14.4612ZM41.8103 1.71292C45.892 3.16827 49.6272 5.47 52.7759 8.47022C50.7895 9.3526 48.7371 10.0747 46.6379 10.6298C45.4879 7.42639 43.8599 4.41938 41.8103 1.71292ZM33.5345 12.3713V0.25C37.1897 1.36461 40.431 5.54438 42.7069 11.4657C39.6758 11.996 36.6099 12.2987 33.5345 12.3713ZM18.7759 46.4365C17.653 41.9241 17.0513 37.2955 16.9828 32.6433H29.3966V45.2522C25.8294 45.3406 22.2762 45.7368 18.7759 46.4365ZM18.9828 15.3669C22.4133 16.0776 25.8967 16.497 29.3966 16.6208V28.4635H17.0517C17.2057 24.0385 17.8535 19.6451 18.9828 15.3669ZM29.3966 0.25V12.3713C26.3194 12.2757 23.2535 11.9497 20.2241 11.3961C22.5 5.47472 25.7414 1.36461 29.3966 0.25ZM10.1552 8.47022C13.3038 5.47 17.039 3.16827 21.1207 1.71292C19.0711 4.41938 17.4431 7.42639 16.2931 10.6298C14.1939 10.0747 12.1415 9.3526 10.1552 8.47022ZM12.9138 28.4635H0.568967C1.12124 22.2589 3.49912 16.3633 7.39655 11.5354C9.85193 12.7507 12.4149 13.7303 15.0517 14.4612C13.799 19.028 13.0814 23.7276 12.9138 28.4635ZM14.9138 47.4118C12.2001 48.1712 9.56682 49.1979 7.05172 50.477C3.07977 45.3682 0.788949 39.1326 0.5 32.6433H12.8448C12.9402 37.6325 13.635 42.5917 14.9138 47.4118ZM41.8103 60.7871C43.9809 57.8969 45.6805 54.675 46.8448 51.2433C49.0432 51.8251 51.1889 52.5941 53.2586 53.5421C50.0155 56.777 46.1068 59.2506 41.8103 60.7871ZM33.5345 62.25V49.432C36.6809 49.5164 39.8164 49.8425 42.9138 50.4073C40.7069 56.677 37.3276 61.0657 33.5345 62.25ZM45.8793 28.4635H33.5345V16.6208C37.0324 16.52 40.5158 16.1238 43.9483 15.4365C45.0724 19.6922 45.7201 24.0619 45.8793 28.4635ZM29.3966 62.25C25.6034 61.0657 22.2241 56.677 20.0172 50.4073C23.1147 49.8425 26.2502 49.5164 29.3966 49.432V62.25ZM21.1207 60.7871C16.8242 59.2506 12.9155 56.777 9.67242 53.5421C11.7422 52.5941 13.8878 51.8251 16.0862 51.2433C17.2506 54.675 18.9501 57.8969 21.1207 60.7871ZM33.5345 32.6433H45.9483C45.8798 37.2955 45.2781 41.9241 44.1552 46.4365C40.6548 45.7368 37.1017 45.3406 33.5345 45.2522V32.6433Z" fill="#11476F"/>
</svg>
