<svg width="56" height="57" viewBox="0 0 56 57" fill="none" xmlns="http://www.w3.org/2000/svg">
<rect x="0.00012207" y="0.143066" width="56.0002" height="56" rx="28" fill="#085393"/>
<path fill-rule="evenodd" clip-rule="evenodd" d="M28.0764 14.4764H28.0765C30.9974 14.4763 33.2916 14.4763 35.0828 14.7172C36.9183 14.9639 38.3747 15.48 39.5189 16.6242C40.6632 17.7685 41.1793 19.2248 41.426 21.0604C41.6669 22.8516 41.6668 25.1458 41.6668 28.0667V28.0668V28.2192V28.2193C41.6668 31.1402 41.6669 33.4344 41.426 35.2257C41.1793 37.0612 40.6632 38.5175 39.5189 39.6618C38.3747 40.8061 36.9183 41.3221 35.0828 41.5689C33.2916 41.8097 30.9974 41.8097 28.0765 41.8097H28.0764H27.9239H27.9239C25.003 41.8097 22.7087 41.8097 20.9175 41.5689C19.082 41.3221 17.6256 40.8061 16.4814 39.6618C15.3371 38.5175 14.8211 37.0612 14.5743 35.2257C14.3335 33.4344 14.3335 31.1402 14.3335 28.2193V28.2193V28.0668V28.0668C14.3335 25.1458 14.3335 22.8516 14.5743 21.0604C14.8211 19.2248 15.3371 17.7685 16.4814 16.6242C17.6256 15.48 19.082 14.9639 20.9175 14.7172C22.7087 14.4763 25.003 14.4763 27.9239 14.4764H27.9239H28.0764ZM34.0002 28.143C34.0002 31.4567 31.3139 34.143 28.0002 34.143C24.6865 34.143 22.0002 31.4567 22.0002 28.143C22.0002 24.8293 24.6865 22.143 28.0002 22.143C31.3139 22.143 34.0002 24.8293 34.0002 28.143ZM35.3499 22.143C36.083 22.143 36.6772 21.5461 36.6772 20.8097C36.6772 20.0733 36.083 19.4764 35.3499 19.4764H35.338C34.6049 19.4764 34.0106 20.0733 34.0106 20.8097C34.0106 21.5461 34.6049 22.143 35.338 22.143H35.3499Z" fill="white"/>
</svg>
