<svg width="120" height="120" viewBox="0 0 120 120" fill="none" xmlns="http://www.w3.org/2000/svg">
<circle cx="60" cy="60" r="60" fill="#00243B"/>
<g filter="url(#filter0_d_97_1019)">
<path d="M77.3189 24H42.8014V28.8901H77.3189V24Z" fill="white"/>
<path d="M101.537 71.3343V77.2098L64.1184 83.6886C63.9728 84.7315 63.0945 85.5384 62.0132 85.5384C60.8348 85.5384 59.8756 84.5766 59.8756 83.395C59.8756 82.2134 60.8348 81.2517 62.0132 81.2517C62.8341 81.2517 63.5417 81.7237 63.8992 82.4096L100.238 76.1093V71.7813C100.691 71.6765 101.122 71.5216 101.537 71.3343Z" fill="white"/>
<path d="M35.6162 83.6723H32.3017V82.3978C32.3017 82.2651 32.2561 82.1485 32.1649 82.0482C32.0737 81.9479 31.9619 81.8977 31.8295 81.8977H30.4584C30.326 81.8977 30.2142 81.9479 30.1229 82.0482C30.0317 82.1485 29.9861 82.2651 29.9861 82.3978V85.2714C29.9861 85.4042 30.0317 85.5207 30.1229 85.621C30.2142 85.7213 30.326 85.7715 30.4584 85.7715H32.7004C34.76 85.8054 35.7898 86.9044 35.7898 89.0699V92.5424C35.7898 94.7403 34.76 95.8393 32.7004 95.8393H29.761C27.7014 95.8393 26.6716 94.7403 26.6716 92.5424V90.8681H29.9861V92.6677C29.9861 92.8005 30.0317 92.917 30.1229 93.0173C30.2142 93.1177 30.326 93.1678 30.4584 93.1678H32.0031C32.1355 93.1678 32.2473 93.1177 32.34 93.0173C32.4312 92.917 32.4768 92.8005 32.4768 92.6677V89.4947C32.4768 89.362 32.4312 89.2454 32.34 89.1451C32.2488 89.0448 32.1355 88.9946 32.0031 88.9946H29.761C27.7014 88.9946 26.6716 87.8942 26.6716 85.6962V82.4745C26.6716 80.2751 27.7014 79.1761 29.761 79.1761H32.5268C34.5864 79.1761 35.6162 80.2751 35.6162 82.4745V83.6723Z" fill="#00E5FF"/>
<path d="M102.4 83.833H99.0857V82.5585C99.0857 82.4258 99.04 82.3092 98.9488 82.2089C98.8576 82.1086 98.7458 82.0585 98.6134 82.0585H97.2423C97.1099 82.0585 96.9981 82.1086 96.9069 82.2089C96.8157 82.3092 96.7701 82.4258 96.7701 82.5585V85.4321C96.7701 85.5649 96.8157 85.6814 96.9069 85.7817C96.9981 85.882 97.1099 85.9322 97.2423 85.9322H99.4843C101.544 85.9661 102.574 87.0651 102.574 89.2306V92.7031C102.574 94.901 101.544 96 99.4843 96H96.545C94.4854 96 93.4556 94.901 93.4556 92.7031V91.0288H96.7701V92.8284C96.7701 92.9612 96.8157 93.0777 96.9069 93.1781C96.9981 93.2784 97.1099 93.3285 97.2423 93.3285H98.787C98.9194 93.3285 99.0312 93.2784 99.1239 93.1781C99.2151 93.0777 99.2607 92.9612 99.2607 92.8284V89.6554C99.2607 89.5227 99.2151 89.4061 99.1239 89.3058C99.0327 89.2055 98.9194 89.1554 98.787 89.1554H96.545C94.4854 89.1554 93.4556 88.0549 93.4556 85.8569V82.6352C93.4556 80.4358 94.4854 79.3368 96.545 79.3368H99.3107C101.37 79.3368 102.4 80.4358 102.4 82.6352V83.833Z" fill="#00E5FF"/>
<path d="M41.0712 92.6913H44.933V95.59H37.5831V79.4254H44.933V82.2739H41.0712V86.0709H44.6844V88.8191H41.0712V92.6913Z" fill="#00E5FF"/>
<path d="M49.941 88.9696V95.59H46.4529V79.4254H52.6567C54.7163 79.4254 55.7461 80.5244 55.7461 82.7238V84.5973C55.7461 85.9293 55.2739 86.779 54.3265 87.1448C55.1562 87.4443 55.5725 88.1273 55.5725 89.1923V95.5885H52.0844V89.4682C52.0844 89.1363 51.927 88.9696 51.6122 88.9696H49.941ZM49.941 81.7989V86.5208H51.7843C51.9167 86.5208 52.0285 86.4707 52.1212 86.3704C52.2124 86.2701 52.258 86.1535 52.258 86.0208V82.2975C52.258 82.1647 52.2124 82.0482 52.1212 81.9479C52.03 81.8476 51.9167 81.7974 51.7843 81.7974H49.941V81.7989Z" fill="#00E5FF"/>
<path d="M64.776 84.407C64.4508 85.2788 63.7359 85.9559 62.8576 86.2244L62.0205 91.2207L61.1908 86.2406C59.9638 85.8821 59.062 84.7404 59.062 83.3965C59.062 82.4023 59.5578 81.5142 60.314 80.9847L60.0536 79.4284H56.6641L60.005 95.5885H64.0198L66.3854 84.1297L64.776 84.407ZM63.9963 79.4269L63.7359 80.9994C63.9389 81.1454 64.1184 81.3166 64.2802 81.5128L67.0195 81.0407L67.3534 79.4269H63.9963Z" fill="#00E5FF"/>
<path d="M68.5789 79.4269V80.7722L72.0655 80.1615V79.4284H68.5789V79.4269ZM68.5789 83.7461V95.5871H72.0655V83.1428L68.5789 83.7461Z" fill="#00E5FF"/>
<path d="M80.1612 90.4447V92.9377C80.1612 93.0764 80.1127 93.19 80.0229 93.2888C79.9332 93.395 79.8199 93.4437 79.6905 93.4437H78.1222C77.9839 93.4437 77.878 93.395 77.7809 93.2888C77.6912 93.1915 77.6426 93.0764 77.6426 92.9377V82.1722L74.156 82.7829V92.538C74.156 94.7389 75.1888 95.8393 77.2439 95.8393H80.3893C82.4459 95.8393 83.4772 94.7389 83.4772 92.538V90.4433H80.1612V90.4447ZM83.3316 81.1956L80.0641 81.7576C80.1289 81.8476 80.1612 81.9376 80.1612 82.0512V83.9984H83.4772V82.4746C83.4772 81.9937 83.4287 81.5703 83.3316 81.1956Z" fill="#00E5FF"/>
<path d="M92.4174 82.271V79.6142L85.0704 80.8858V95.587H92.4174V92.6943H88.5571V88.8235H92.1731V86.0694H88.5571V82.2724H92.4174V82.271Z" fill="#00E5FF"/>
<path d="M100.504 46.0784V49.0611C99.9835 48.9151 99.4391 48.8414 98.8786 48.8325V46.0784C98.8786 35.7038 90.4666 27.2615 80.1127 27.2615H40.0033C29.6567 27.2615 21.2373 35.7052 21.2373 46.0784V48.8325H21.2049C20.6606 48.8325 20.1237 48.8974 19.6117 49.0287V46.0784C19.6117 34.7995 28.7637 25.6315 40.0033 25.6315H80.1127C91.3611 25.6315 100.504 34.7995 100.504 46.0784Z" fill="white"/>
<path d="M22.8761 50.4611H21.2034C18.4568 50.4611 16.231 52.6929 16.231 55.447V65.4898C16.231 68.2439 18.4568 70.4758 21.2034 70.4758H22.8761V50.4611Z" fill="white"/>
<path d="M14.7731 55.8793H12V64.7478H14.7731V55.8793Z" fill="white"/>
<path d="M97.1235 50.4611H98.7962C101.543 50.4611 103.769 52.6929 103.769 55.447V65.4898C103.769 68.2439 101.543 70.4758 98.7962 70.4758H97.1235V50.4611Z" fill="white"/>
<path d="M105.227 64.7486L108 64.7486L108 55.88L105.227 55.88L105.227 64.7486Z" fill="white"/>
<path d="M61.4246 69.9831H70.3206V76.6581H53.3892V39.4255H70.3191V45.987H61.4231V54.7331H69.7454V61.0629H61.4231V69.9831H61.4246Z" fill="white"/>
<path d="M72.3318 46.2731V39.4241H92.4188V46.2731H86.3915V76.6581H78.3576V46.2731H72.3318Z" fill="white"/>
<path d="M60.0007 30.3888L60.8863 33.1208H63.7521L61.4336 34.8098L62.3192 37.5432L60.0007 35.8542L57.6822 37.5432L58.5678 34.8098L56.2493 33.1208H59.1151L60.0007 30.3888Z" fill="#00E5FF"/>
<path d="M48.8627 31.7902L49.5747 33.9867H51.8785L50.0146 35.3453L50.7266 37.5432L48.8627 36.1846L46.9972 37.5432L47.7093 35.3453L45.8453 33.9867H48.1506L48.8627 31.7902Z" fill="#00E5FF"/>
<path d="M71.1388 31.7902L71.8508 33.9867H74.1546L72.2907 35.3453L73.0027 37.5432L71.1388 36.1846L69.2748 37.5432L69.9869 35.3453L68.1215 33.9867H70.4267L71.1388 31.7902Z" fill="#00E5FF"/>
<path d="M45.9334 56.2864C48.1151 55.4426 49.2053 53.4866 49.2053 50.4168V47.021C49.2053 41.9569 46.8323 39.4241 42.0893 39.4241H27.7986V76.6581H32.9461C32.877 76.6197 32.8078 76.5784 32.7402 76.5386C32.7255 76.5401 32.7122 76.5401 32.6975 76.5415C30.6791 75.357 29.1918 73.4673 28.5047 71.2133L28.5106 71.1942C28.2473 70.3297 28.1046 69.4122 28.1046 68.4622C28.1046 63.3022 32.2768 59.1201 37.4214 59.1201C42.3438 59.1201 46.3718 62.9481 46.7131 67.7984C46.7146 67.8249 46.7175 67.8515 46.719 67.878C46.7249 67.9636 46.7278 68.0492 46.7308 68.1347C46.7337 68.2129 46.7352 68.2896 46.7367 68.3678C46.7367 68.4002 46.7396 68.4312 46.7396 68.4637C46.7396 68.4888 46.7381 68.5138 46.7381 68.5389C46.7381 68.654 46.7337 68.769 46.7293 68.8841C46.7278 68.9121 46.7278 68.9401 46.7264 68.9682C46.669 70.0672 46.4204 71.1573 45.979 72.184C45.8187 72.5587 45.626 72.9333 45.4068 73.3007C45.4038 73.2992 45.4009 73.2977 45.3994 73.2948C44.5505 74.702 43.3398 75.8645 41.8995 76.6581H42.5527C47.2972 76.6581 49.6687 74.1253 49.6687 69.0611V62.3861C49.6628 59.2027 48.4197 57.17 45.9334 56.2864ZM41.1698 53.6975C41.1698 54.0044 41.0639 54.2728 40.8536 54.503C40.6417 54.7331 40.3843 54.8481 40.0783 54.8481H35.8325V44.8924H40.0797C40.3857 44.8924 40.6432 45.0075 40.855 45.2376C41.0639 45.4677 41.1713 45.7362 41.1713 46.043V53.6975H41.1698Z" fill="white"/>
<path d="M46.7368 68.4637C46.7368 68.4312 46.7354 68.4003 46.7339 68.3678C46.7339 68.4253 46.7354 68.4814 46.7339 68.5389C46.7354 68.5138 46.7368 68.4888 46.7368 68.4637Z" fill="white"/>
<path opacity="0.63" d="M46.3867 65.8689C46.3352 65.6904 46.2779 65.5164 46.2175 65.3423C46.0189 65.4485 45.813 65.5518 45.6041 65.6506C45.2539 64.7773 44.2094 63.0027 43.4665 62.4672C43.3341 61.917 43.0869 61.3491 42.7442 60.7944C42.7559 60.8018 42.7662 60.8107 42.7765 60.8195C42.775 60.8166 42.7736 60.8136 42.7721 60.8107C42.3764 60.5319 41.96 60.2796 41.5202 60.0642C41.5187 60.0687 41.5187 60.0731 41.5172 60.0775C41.5231 60.0805 41.5275 60.0819 41.5334 60.0849C41.913 60.5068 42.5558 61.3255 42.8677 62.3389C42.2263 62.3817 41.0347 62.6634 40.2667 63.0898C39.9093 62.8434 39.2516 62.4259 38.4337 62.0734C37.7599 61.7813 37.1082 61.591 36.4932 61.5055C36.3917 60.7222 36.2064 60.1557 35.9283 59.784C36.3623 59.5656 36.8448 59.3768 37.3656 59.2175C37.4598 59.1895 37.5554 59.1615 37.654 59.1349C37.6775 59.1349 37.7011 59.1379 37.7246 59.1379C37.7261 59.1334 37.7261 59.129 37.7275 59.1261C37.6334 59.1231 37.5392 59.1187 37.4451 59.1187C32.299 59.1187 28.1283 63.3022 28.1283 68.4607C28.1283 69.4122 28.271 70.3283 28.5343 71.1927L28.7535 70.5304C29.3567 70.9611 30.1629 71.3033 31.1015 71.5246C31.4501 72.2548 32.7183 74.0353 33.3774 74.5678C33.2611 75.2582 33.2376 76.0503 33.2435 76.5165C33.2126 76.515 33.1832 76.515 33.1523 76.515C33.0346 76.515 32.9066 76.5224 32.7654 76.5357C32.8345 76.5755 32.9022 76.6168 32.9713 76.6551H33.7907C33.776 76.2097 33.7937 75.4057 33.904 74.7139C34.8323 74.7109 36.5786 74.2787 37.2215 74.0604C37.7011 74.466 38.3954 74.8835 39.0986 75.1874C39.6533 75.4264 40.149 75.5739 40.5463 75.6166C40.5242 75.9028 40.4683 76.2731 40.383 76.6566H41.9218C43.3635 75.863 44.5728 74.7006 45.4216 73.2933C45.1009 73.0617 44.7096 72.8493 44.4477 72.7165C44.5095 72.1309 44.664 70.1881 44.1962 68.7454C44.7111 68.2247 45.5187 67.2629 45.7026 66.2038C45.9262 66.102 46.1572 65.9884 46.3867 65.8689ZM35.6665 59.306C35.5767 59.3518 35.4899 59.3975 35.4046 59.4447C35.3296 59.4417 35.2516 59.4403 35.1722 59.4403C35.1398 59.4403 35.1074 59.4403 35.0736 59.4417C35.2692 59.3901 35.4664 59.3444 35.6665 59.306ZM30.9191 61.802C30.6572 62.2519 30.4645 62.7136 30.3438 63.1827C29.8069 63.5485 29.3641 64.0206 29.0139 64.4838C29.4862 63.4807 30.1335 62.572 30.9191 61.802ZM31.1265 70.9759C30.7057 70.8711 30.3188 70.7428 29.9716 70.5938C29.5347 70.405 29.1566 70.1778 28.8477 69.9197C28.5755 69.0301 28.3622 67.5432 28.4931 66.4841L28.5299 66.3955C28.7212 65.9515 29.4317 64.4572 30.6601 63.6252C31.0824 63.7447 32.0151 64.0383 32.5565 64.2728C32.5932 64.289 32.6271 64.3038 32.6594 64.3186C32.4549 65.7303 32.9595 67.5152 33.2258 68.3206C32.3681 69.008 31.6282 69.9433 31.1265 70.9759ZM37.1979 69.5804C36.9022 69.4624 36.6095 69.3517 36.3049 69.2381L36.149 69.1791C35.5252 68.9446 34.8838 68.7027 34.1747 68.3973C34.0379 68.3368 33.8981 68.2763 33.7628 68.2159C33.7496 68.1775 33.7363 68.1377 33.7231 68.0934C33.4877 67.3677 32.9801 65.5901 33.2126 64.2935C34.3939 63.2727 35.3987 62.5307 36.2829 62.0291C36.886 62.097 37.5363 62.2814 38.2174 62.5749C38.8118 62.8316 39.312 63.1237 39.6283 63.3243C39.7989 63.432 39.9313 63.522 40.0181 63.5825C40.3035 64.7921 40.3918 66.0769 40.4492 67.1951C39.9254 67.8825 39.0648 68.4976 38.4293 68.8944C38.1012 69.098 37.7717 69.2853 37.4524 69.4506C37.3465 69.5066 37.2597 69.5494 37.1979 69.5804ZM43.924 72.4451C43.9137 72.5675 43.9034 72.6678 43.8961 72.7401C42.8677 73.6886 41.7703 74.4292 40.736 75.0885C40.3933 75.0782 39.8784 74.9351 39.3149 74.6917L39.2384 74.6593C38.5896 74.3702 37.9703 73.9925 37.5495 73.6296C37.5495 73.3582 37.5525 73.0853 37.5554 72.8183V72.6855C37.5598 71.8093 37.5657 70.9036 37.5157 70.0303C38.2689 69.6541 39.8931 68.7572 40.8111 67.6155C41.2524 67.8087 41.7188 68.0079 42.1748 68.2026C42.1748 68.2026 42.906 68.5153 43.1002 68.5994C43.3076 68.6894 43.4886 68.769 43.6504 68.8399C43.9255 69.6335 43.9799 70.6262 43.9755 71.3269C43.9726 71.8285 43.9417 72.243 43.924 72.4451Z" fill="white"/>
</g>
<defs>
<filter id="filter0_d_97_1019" x="8" y="24" width="104" height="80" filterUnits="userSpaceOnUse" color-interpolation-filters="sRGB">
<feFlood flood-opacity="0" result="BackgroundImageFix"/>
<feColorMatrix in="SourceAlpha" type="matrix" values="0 0 0 0 0 0 0 0 0 0 0 0 0 0 0 0 0 0 127 0" result="hardAlpha"/>
<feOffset dy="4"/>
<feGaussianBlur stdDeviation="2"/>
<feComposite in2="hardAlpha" operator="out"/>
<feColorMatrix type="matrix" values="0 0 0 0 0 0 0 0 0 0 0 0 0 0 0 0 0 0 0.25 0"/>
<feBlend mode="normal" in2="BackgroundImageFix" result="effect1_dropShadow_97_1019"/>
<feBlend mode="normal" in="SourceGraphic" in2="effect1_dropShadow_97_1019" result="shape"/>
</filter>
</defs>
</svg>
