<svg width="56" height="57" viewBox="0 0 56 57" fill="none" xmlns="http://www.w3.org/2000/svg">
<rect x="-0.000244141" y="0.143066" width="56.0002" height="56" rx="28" fill="#085393"/>
<path d="M27.0097 23.3944C26.8685 20.1568 29.4977 17.1875 32.9107 17.1875C34.2478 17.1875 35.4828 17.6324 36.4733 18.3814L40.2397 17.8199C40.5854 17.7684 40.9309 17.9143 41.135 18.198C41.3391 18.4817 41.3676 18.8557 41.2088 19.167L38.8025 23.8864C38.3916 32.2837 31.4539 38.9653 22.9551 38.9653C20.0993 38.9653 17.3823 38.3391 15.0211 36.9732C14.6706 36.7704 14.4908 36.3648 14.576 35.9689C14.6612 35.573 14.992 35.2773 15.3949 35.2366C16.2693 35.1485 17.5906 34.8967 18.6691 34.504C19.2128 34.306 19.6372 34.0925 19.9081 33.8848C19.9344 33.8646 19.958 33.8455 19.9791 33.8276C16.203 29.674 14.8762 23.3121 16.4435 17.9882C16.5468 17.6373 16.8456 17.3791 17.2077 17.3277C17.5699 17.2763 17.9287 17.4412 18.1255 17.7495C20.1288 20.8873 23.4109 23.217 27.0097 23.3944Z" fill="white"/>
</svg>
